<svg xmlns="http://www.w3.org/2000/svg" viewBox="0 0 24 24" fill="black"
    id="cards">
    <path
        d="m10.348 3.169 -7.15 3.113a2 2 0 0 0 -1.03 2.608l4.92 11.895a1.96 1.96 0 0 0 2.59 1.063l7.142 -3.11a2.002 2.002 0 0 0 1.036 -2.611l-4.92 -11.894a1.96 1.96 0 0 0 -2.588 -1.064z"
        stroke-width="1"></path>
    <path
        d="M16 3a2 2 0 0 1 1.995 1.85L18 5v3.5a1 1 0 0 1 -1.993 0.117L16 8.5V5h-1a1 1 0 0 1 -0.117 -1.993L15 3h1z"
        stroke-width="1"></path>
    <path
        d="M19.08 5.61a1 1 0 0 1 1.31 -0.53c0.257 0.108 0.505 0.21 0.769 0.314a2 2 0 0 1 1.114 2.479l-0.056 0.146 -2.298 5.374a1 1 0 0 1 -1.878 -0.676l0.04 -0.11 2.296 -5.371 -0.366 -0.148 -0.402 -0.167a1 1 0 0 1 -0.53 -1.312z"
        stroke-width="1"></path>
</svg>